<svg width="343" height="238" viewBox="0 0 343 238" fill="none" xmlns="http://www.w3.org/2000/svg">
<g clip-path="url(#clip0_377_3499)">
<path d="M68.6412 238C106.275 238 136.782 235.682 136.782 232.824C136.782 229.965 106.275 227.647 68.6412 227.647C31.0079 227.647 0.5 229.965 0.5 232.824C0.5 235.682 31.0079 238 68.6412 238Z" fill="#E6E6E6"/>
<path d="M52.5859 52.808C64.4446 47.763 79.2147 50.9595 93.6393 53.1779C93.7735 50.4914 95.4005 47.2217 93.6962 45.3474C91.6256 43.0703 91.8162 40.6777 93.0622 38.2713C96.2484 32.1178 91.6835 25.5702 87.0743 20.1259C86.0354 18.9015 84.7224 17.9395 83.2421 17.3181C81.7617 16.6966 80.1556 16.4331 78.5543 16.5491L70.0162 17.1591C67.9385 17.3075 65.9557 18.087 64.3331 19.3934C62.7105 20.6998 61.5255 22.4707 60.9366 24.4691C58.8978 27.2424 57.8067 30.0081 58.4937 32.7594C55.44 34.8467 54.9269 37.3663 56.2991 40.2067C57.4627 41.9951 57.4503 43.736 56.2462 45.4287C54.6648 47.5868 53.4536 49.993 52.6623 52.5489L52.5859 52.808Z" fill="#2F2E41"/>
<path d="M334.396 205.747H92.7025C90.5532 205.747 88.4918 204.893 86.972 203.373C85.4522 201.853 84.5984 199.791 84.5984 197.641C172.212 187.457 258.179 187.457 342.5 197.641C342.5 199.791 341.646 201.853 340.126 203.373C338.607 204.893 336.545 205.747 334.396 205.747Z" fill="#2F2E41"/>
<path d="M342.5 198.118L84.5984 197.641L114.488 147.337L114.631 147.099V36.2334C114.631 34.8878 114.896 33.5553 115.411 32.312C115.926 31.0688 116.68 29.9391 117.632 28.9876C118.583 28.0361 119.712 27.2813 120.955 26.7664C122.198 26.2515 123.53 25.9865 124.876 25.9866H300.792C302.138 25.9865 303.47 26.2515 304.713 26.7664C305.956 27.2813 307.085 28.0361 308.037 28.9876C308.988 29.9391 309.743 31.0688 310.257 32.312C310.772 33.5553 311.037 34.8878 311.037 36.2334V147.861L342.5 198.118Z" fill="#3F3D56"/>
<path d="M124.642 33.1389C123.757 33.1399 122.909 33.4919 122.284 34.1176C121.658 34.7433 121.306 35.5917 121.305 36.4766V137.562C121.306 138.447 121.658 139.295 122.284 139.921C122.909 140.547 123.757 140.899 124.642 140.9H302.456C303.341 140.899 304.189 140.547 304.814 139.921C305.44 139.295 305.792 138.447 305.793 137.562V36.4766C305.792 35.5917 305.44 34.7434 304.814 34.1176C304.189 33.4919 303.341 33.1399 302.456 33.1389H124.642Z" fill="white"/>
<path d="M125.387 154.251C125.114 154.251 124.846 154.33 124.616 154.477C124.386 154.625 124.203 154.835 124.088 155.083L114.878 175.11C114.778 175.328 114.734 175.567 114.75 175.807C114.767 176.046 114.844 176.277 114.973 176.479C115.102 176.681 115.28 176.847 115.491 176.963C115.701 177.078 115.937 177.138 116.177 177.138H309.859C310.102 177.138 310.342 177.076 310.555 176.957C310.768 176.838 310.947 176.667 311.075 176.46C311.203 176.252 311.276 176.015 311.287 175.772C311.298 175.528 311.247 175.286 311.137 175.068L301.127 155.041C301.008 154.803 300.826 154.603 300.6 154.463C300.374 154.324 300.113 154.25 299.848 154.251H125.387Z" fill="#2F2E41"/>
<path d="M212.834 31.47C214.019 31.47 214.979 30.5094 214.979 29.3243C214.979 28.1393 214.019 27.1787 212.834 27.1787C211.649 27.1787 210.689 28.1393 210.689 29.3243C210.689 30.5094 211.649 31.47 212.834 31.47Z" fill="white"/>
<path d="M193.797 180.953C193.483 180.953 193.177 181.057 192.928 181.248C192.678 181.439 192.498 181.707 192.416 182.011L190.106 190.594C190.049 190.806 190.041 191.028 190.084 191.243C190.126 191.459 190.218 191.662 190.352 191.836C190.485 192.01 190.657 192.151 190.854 192.249C191.051 192.346 191.267 192.396 191.487 192.396H235.422C235.65 192.396 235.875 192.342 236.078 192.237C236.28 192.133 236.455 191.981 236.587 191.795C236.719 191.61 236.805 191.395 236.838 191.169C236.87 190.943 236.848 190.713 236.773 190.498L233.803 181.915C233.706 181.634 233.523 181.39 233.281 181.218C233.039 181.045 232.749 180.953 232.452 180.953H193.797Z" fill="#2F2E41"/>
<path d="M311.037 145.43V147.337H114.488L114.636 147.099V145.43H311.037Z" fill="#2F2E41"/>
<path d="M305.555 66.7546C323.984 66.7546 338.925 51.8111 338.925 33.3773C338.925 14.9435 323.984 0 305.555 0C287.125 0 272.185 14.9435 272.185 33.3773C272.185 51.8111 287.125 66.7546 305.555 66.7546Z" fill="#4CA2D4"/>
<path d="M319.379 47.9203H291.73C291.225 47.9198 290.74 47.7187 290.382 47.3611C290.025 47.0035 289.824 46.5187 289.823 46.013V29.3243C289.824 28.8187 290.025 28.3339 290.382 27.9763C290.74 27.6187 291.225 27.4176 291.73 27.4171H319.379C319.885 27.4176 320.37 27.6187 320.727 27.9763C321.085 28.3339 321.286 28.8187 321.286 29.3243V46.013C321.286 46.5187 321.085 47.0035 320.727 47.3611C320.37 47.7187 319.885 47.9198 319.379 47.9203ZM291.73 29.3244V46.013H319.381L319.379 29.3243L291.73 29.3244Z" fill="white"/>
<path d="M314.136 29.3243H296.974V21.6952C296.974 16.1695 300.583 12.1589 305.555 12.1589C310.527 12.1589 314.136 16.1695 314.136 21.6952L314.136 29.3243ZM298.881 27.4171H312.229V21.6952C312.229 17.2034 309.484 14.0662 305.555 14.0662C301.625 14.0662 298.881 17.2034 298.881 21.6952L298.881 27.4171Z" fill="white"/>
<path d="M305.555 39.0991C306.608 39.0991 307.462 38.2452 307.462 37.1918C307.462 36.1385 306.608 35.2846 305.555 35.2846C304.502 35.2846 303.648 36.1385 303.648 37.1918C303.648 38.2452 304.502 39.0991 305.555 39.0991Z" fill="white"/>
<path d="M282.26 106.613H144.839C144.164 106.612 143.517 106.343 143.04 105.866C142.563 105.389 142.295 104.742 142.294 104.067V69.9714C142.295 69.2966 142.563 68.6496 143.04 68.1725C143.517 67.6953 144.164 67.4268 144.839 67.4261H282.26C282.934 67.4268 283.581 67.6953 284.058 68.1725C284.535 68.6496 284.804 69.2966 284.805 69.9714V104.067C284.804 104.742 284.535 105.389 284.058 105.866C283.581 106.343 282.934 106.612 282.26 106.613ZM144.839 68.4442C144.434 68.4447 144.046 68.6057 143.76 68.892C143.473 69.1784 143.312 69.5665 143.312 69.9715V104.067C143.312 104.472 143.473 104.86 143.76 105.147C144.046 105.433 144.434 105.594 144.839 105.595H282.26C282.665 105.594 283.053 105.433 283.339 105.147C283.625 104.86 283.786 104.472 283.787 104.067V69.9714C283.786 69.5665 283.625 69.1783 283.339 68.892C283.053 68.6057 282.665 68.4447 282.26 68.4442L144.839 68.4442Z" fill="#E6E6E6"/>
<path d="M166.191 96.0797C171.916 96.0797 176.557 91.4375 176.557 85.7111C176.557 79.9847 171.916 75.3425 166.191 75.3425C160.466 75.3425 155.825 79.9847 155.825 85.7111C155.825 91.4375 160.466 96.0797 166.191 96.0797Z" fill="#E6E6E6"/>
<path d="M190.132 78.7987C189.905 78.7984 189.68 78.8428 189.47 78.9295C189.26 79.0162 189.07 79.1434 188.909 79.3039C188.748 79.4644 188.621 79.6551 188.534 79.8649C188.447 80.0747 188.402 80.2997 188.402 80.5268C188.402 80.754 188.447 80.9789 188.534 81.1888C188.621 81.3986 188.748 81.5892 188.909 81.7498C189.07 81.9103 189.26 82.0375 189.47 82.1242C189.68 82.2109 189.905 82.2553 190.132 82.2549H271.582C272.04 82.2549 272.479 82.0729 272.803 81.7488C273.127 81.4247 273.309 80.9852 273.309 80.5268C273.309 80.0685 273.127 79.629 272.803 79.3049C272.479 78.9808 272.04 78.7987 271.582 78.7987H190.132Z" fill="#E6E6E6"/>
<path d="M190.132 89.1673C189.674 89.1673 189.235 89.3494 188.911 89.6735C188.587 89.9975 188.405 90.4371 188.405 90.8954C188.405 91.3537 188.587 91.7933 188.911 92.1174C189.235 92.4414 189.674 92.6235 190.132 92.6235H225.18C225.638 92.6235 226.078 92.4414 226.402 92.1174C226.726 91.7933 226.908 91.3537 226.908 90.8954C226.908 90.4371 226.726 89.9975 226.402 89.6735C226.078 89.3494 225.638 89.1673 225.18 89.1673H190.132Z" fill="#E6E6E6"/>
<path d="M114.15 89.8664L88.7469 103.375L88.4253 92.1178C96.7168 90.7333 104.605 88.3229 111.899 84.3986L114.556 77.8332C114.846 77.1177 115.316 76.4899 115.922 76.0114C116.527 75.5328 117.246 75.2199 118.009 75.1034C118.772 74.9869 119.552 75.0707 120.272 75.3468C120.993 75.6229 121.629 76.0816 122.119 76.678C122.836 77.5506 123.194 78.663 123.121 79.7898C123.048 80.9167 122.55 81.9737 121.727 82.7469L114.15 89.8664Z" fill="#FFB8B8"/>
<path d="M52.0795 167.86C51.8942 167.18 51.8548 166.469 51.964 165.773C52.0732 165.076 52.3286 164.411 52.7132 163.821L58.2935 155.255C59.6134 153.229 61.6387 151.765 63.9764 151.149C66.3141 150.532 68.7976 150.805 70.9449 151.916C68.5997 155.909 68.9266 159.412 71.7549 162.456C67.3643 164.6 63.3064 167.367 59.7068 170.672C59.0497 171.12 58.295 171.404 57.5057 171.502C56.7164 171.599 55.9152 171.506 55.169 171.231C54.4227 170.956 53.753 170.507 53.2156 169.92C52.6782 169.334 52.2887 168.627 52.0795 167.86Z" fill="#2F2E41"/>
<path d="M115.307 156.66C114.463 158.067 113.271 159.234 111.845 160.049C110.42 160.863 108.81 161.297 107.169 161.309L70.0962 161.59L68.4884 152.263L84.888 147.439L71.0609 136.825L86.1742 119.135L113.625 144.726C115.229 146.221 116.272 148.223 116.578 150.395C116.884 152.567 116.435 154.779 115.307 156.66Z" fill="#2F2E41"/>
<path d="M64.3081 220.449H55.626C47.8306 167.004 39.8958 113.408 63.3434 93.4043L90.9977 97.9072L87.4605 121.386L72.0256 139.076L64.3081 220.449Z" fill="#2F2E41"/>
<path d="M71.9401 232.556C71.2604 232.742 70.5492 232.781 69.8533 232.672C69.1573 232.563 68.4923 232.307 67.902 231.923L58.475 230.655C56.4493 229.335 54.9861 227.31 54.3692 224.971C53.7523 222.633 54.0258 220.149 55.1365 218.001C59.1287 220.347 62.6308 220.02 65.674 217.19C67.8243 221.533 71.3673 221.268 74.7509 224.927C75.1989 225.584 75.4834 226.339 75.5807 227.129C75.6781 227.918 75.5854 228.719 75.3104 229.466C75.0354 230.212 74.586 230.882 73.9998 231.42C73.4136 231.957 72.7074 232.347 71.9401 232.556Z" fill="#2F2E41"/>
<path d="M84.888 57.7031L68.8099 53.8435C71.4802 48.3764 71.7001 42.2931 70.4177 35.8321L81.3508 35.5105C81.6934 43.5449 82.7298 51.0511 84.888 57.7031Z" fill="#FFB8B8"/>
<path d="M89.3068 107.591C77.6026 115.569 69.3327 107.864 63.0219 95.9774C63.8988 88.7037 62.4789 79.9992 59.8491 70.5411C58.6796 66.3694 59.1162 61.9108 61.0728 58.0454C63.0295 54.18 66.3639 51.1888 70.4178 49.6623L84.2449 55.4517C95.9857 65.024 98.2966 75.3926 93.8917 86.3284L89.3068 107.591Z" fill="#4CA2D4"/>
<path d="M55.6259 65.7439L42.7635 72.4982L65.5943 86.0068L68.7711 93.8446C68.9831 94.3677 69.0864 94.9285 69.0747 95.4929C69.0629 96.0572 68.9364 96.6133 68.7028 97.1271C68.4691 97.641 68.1333 98.1019 67.7158 98.4817C67.2983 98.8615 66.8079 99.1522 66.2743 99.3363C65.6679 99.5454 65.0212 99.6113 64.385 99.5288C63.7488 99.4463 63.1403 99.2176 62.6073 98.8606C62.0742 98.5036 61.631 98.028 61.3123 97.4711C60.9937 96.9142 60.8083 96.291 60.7706 95.6505L60.4493 90.188L31.4316 80.61C30.4539 80.2873 29.5625 79.7463 28.8248 79.028C28.0871 78.3096 27.5225 77.4328 27.1738 76.4639C26.6655 75.0516 26.6396 73.5106 27.1002 72.082C27.5608 70.6535 28.482 69.4179 29.7194 68.5688L53.0534 52.557L55.6259 65.7439Z" fill="#FFB8B8"/>
<path d="M68.4883 67.0305C63.1239 64.679 58.2459 67.2334 52.0887 69.2819L51.124 52.2354C57.2378 48.9761 63.0669 48.0973 68.4883 50.6272L68.4883 67.0305Z" fill="#4CA2D4"/>
<path d="M74.9055 43.9542C80.5748 43.9542 85.1707 39.3573 85.1707 33.6867C85.1707 28.0161 80.5748 23.4192 74.9055 23.4192C69.2362 23.4192 64.6403 28.0161 64.6403 33.6867C64.6403 39.3573 69.2362 43.9542 74.9055 43.9542Z" fill="#FFB8B8"/>
<path d="M87.186 32.3912C77.0225 33.3868 69.2781 31.7243 64.3285 26.9904V23.1781H86.3234L87.186 32.3912Z" fill="#2F2E41"/>
</g>
<defs>
<clipPath id="clip0_377_3499">
<rect width="342" height="238" fill="white" transform="translate(0.5)"/>
</clipPath>
</defs>
</svg>
