<?xml version="1.0" encoding="UTF-8"?>
<svg id="Layer_2" data-name="Layer 2" xmlns="http://www.w3.org/2000/svg" xmlns:xlink="http://www.w3.org/1999/xlink" viewBox="0 0 201.78 201.78">
  <defs>
    <style>
      .cls-1 {
        clip-rule: evenodd;
      }

      .cls-1, .cls-2, .cls-3, .cls-4 {
        stroke-width: 0px;
      }

      .cls-1, .cls-4, .cls-5 {
        fill: #132674;
      }

      .cls-2, .cls-3 {
        fill: #4ca2d4;
      }

      .cls-6 {
        clip-path: url(#clippath);
      }

      .cls-3, .cls-4, .cls-5 {
        fill-rule: evenodd;
      }
    </style>
    <clipPath id="clippath">
      <path class="cls-1" d="m144.2,9.77C130.67,3.34,115.87,0,100.89,0,45.21,0,0,45.21,0,100.89s45.21,100.89,100.89,100.89,100.89-45.21,100.89-100.89c0-22.73-7.67-44.79-21.78-62.61l-29.9,23.66c8.77,11.09,13.55,24.81,13.55,38.95,0,34.64-28.12,62.76-62.76,62.76s-62.76-28.12-62.76-62.76,28.12-62.76,62.76-62.76c9.32,0,18.53,2.08,26.94,6.08l16.37-34.44Z"/>
    </clipPath>
  </defs>
  <g id="Layer_1-2" data-name="Layer 1">
    <g>
      <path class="cls-4" d="m144.2,9.77C130.67,3.34,115.87,0,100.89,0,45.21,0,0,45.21,0,100.89s45.21,100.89,100.89,100.89,100.89-45.21,100.89-100.89c0-22.73-7.67-44.79-21.78-62.61l-29.9,23.66c8.77,11.09,13.55,24.81,13.55,38.95,0,34.64-28.12,62.76-62.76,62.76s-62.76-28.12-62.76-62.76,28.12-62.76,62.76-62.76c9.32,0,18.53,2.08,26.94,6.08l16.37-34.44Z"/>
      <g>
        <path class="cls-5" d="m144.2,9.77C130.67,3.34,115.87,0,100.89,0,45.21,0,0,45.21,0,100.89s45.21,100.89,100.89,100.89,100.89-45.21,100.89-100.89c0-22.73-7.67-44.79-21.78-62.61l-29.9,23.66c8.77,11.09,13.55,24.81,13.55,38.95,0,34.64-28.12,62.76-62.76,62.76s-62.76-28.12-62.76-62.76,28.12-62.76,62.76-62.76c9.32,0,18.53,2.08,26.94,6.08l16.37-34.44Z"/>
        <g class="cls-6">
          <path class="cls-3" d="m49.02,65.84s-40.07,50.19,6.57,132.79L-4.04,165.16l-22.19-96.98L3.71-20.63,161.2-4.69l6.32,53.87-118.5,16.67Z"/>
        </g>
      </g>
      <circle class="cls-2" cx="137.16" cy="27.58" r="19.12" transform="translate(20.67 105.07) rotate(-45)"/>
      <path class="cls-3" d="m110.31,141.21s36.22-28.59,63.47-50.08c7.85-6.19,12.91-15.24,14.08-25.17,1.17-9.92-1.65-19.91-7.84-27.75h0s-36.22,28.58-63.47,50.08c-7.85,6.19-12.91,15.24-14.08,25.17-1.17,9.93,1.65,19.91,7.84,27.75h0Z"/>
    </g>
  </g>
</svg>